<mxfile host="app.diagrams.net" agent="Mozilla/5.0 (Windows NT 10.0; Win64; x64) AppleWebKit/537.36 (KHTML, like Gecko) Chrome/127.0.0.0 Safari/537.36" version="24.7.6">
  <diagram name="Сторінка-1" id="nVNhPY1U9DYZo5bc8fYb">
    <mxGraphModel dx="880" dy="468" grid="1" gridSize="10" guides="1" tooltips="1" connect="1" arrows="1" fold="1" page="1" pageScale="1" pageWidth="827" pageHeight="1169" math="0" shadow="0">
      <root>
        <mxCell id="0" />
        <mxCell id="1" parent="0" />
        <mxCell id="_sbJuIPB83N5UaiC-M2L-17" style="edgeStyle=orthogonalEdgeStyle;rounded=0;orthogonalLoop=1;jettySize=auto;html=1;exitX=0;exitY=0.5;exitDx=0;exitDy=0;endArrow=classic;endFill=1;entryX=0.006;entryY=0.613;entryDx=0;entryDy=0;entryPerimeter=0;" edge="1" parent="1" source="_sbJuIPB83N5UaiC-M2L-1" target="_sbJuIPB83N5UaiC-M2L-9">
          <mxGeometry relative="1" as="geometry">
            <mxPoint x="40" y="370" as="targetPoint" />
            <Array as="points">
              <mxPoint x="40" y="70" />
              <mxPoint x="40" y="369" />
            </Array>
          </mxGeometry>
        </mxCell>
        <mxCell id="_sbJuIPB83N5UaiC-M2L-1" value="&lt;p style=&quot;margin:0px;margin-top:4px;text-align:center;&quot;&gt;&lt;b&gt;Main&lt;/b&gt;&lt;/p&gt;&lt;hr size=&quot;1&quot; style=&quot;border-style:solid;&quot;&gt;&lt;p style=&quot;margin:0px;margin-left:4px;&quot;&gt;+ main (String[] args)&lt;/p&gt;" style="verticalAlign=top;align=left;overflow=fill;html=1;whiteSpace=wrap;" vertex="1" parent="1">
          <mxGeometry x="80" y="40" width="160" height="60" as="geometry" />
        </mxCell>
        <mxCell id="_sbJuIPB83N5UaiC-M2L-2" value="&lt;p style=&quot;margin:0px;margin-top:4px;text-align:center;&quot;&gt;&lt;i&gt;&amp;lt;&amp;lt;Interface&amp;gt;&amp;gt;&lt;/i&gt;&lt;br&gt;&lt;b&gt;Mediator&lt;/b&gt;&lt;/p&gt;&lt;hr size=&quot;1&quot; style=&quot;border-style:solid;&quot;&gt;&lt;p style=&quot;margin:0px;margin-left:4px;&quot;&gt;+ sendMessage (String message, Colleague colleague)&lt;/p&gt;&lt;p style=&quot;margin:0px;margin-left:4px;&quot;&gt;+ addColleague (&lt;span style=&quot;background-color: initial;&quot;&gt;Colleague colleague)&lt;/span&gt;&lt;/p&gt;" style="verticalAlign=top;align=left;overflow=fill;html=1;whiteSpace=wrap;" vertex="1" parent="1">
          <mxGeometry x="400" y="40" width="306" height="80" as="geometry" />
        </mxCell>
        <mxCell id="_sbJuIPB83N5UaiC-M2L-8" style="edgeStyle=none;rounded=0;orthogonalLoop=1;jettySize=auto;html=1;exitX=0;exitY=0.75;exitDx=0;exitDy=0;entryX=1;entryY=0.5;entryDx=0;entryDy=0;" edge="1" parent="1" source="_sbJuIPB83N5UaiC-M2L-3" target="_sbJuIPB83N5UaiC-M2L-6">
          <mxGeometry relative="1" as="geometry" />
        </mxCell>
        <mxCell id="_sbJuIPB83N5UaiC-M2L-3" value="&lt;p style=&quot;margin:0px;margin-top:4px;text-align:center;&quot;&gt;&lt;b&gt;ConcreteMediator&lt;/b&gt;&lt;/p&gt;&lt;hr size=&quot;1&quot; style=&quot;border-style:solid;&quot;&gt;&lt;p style=&quot;margin:0px;margin-left:4px;&quot;&gt;- List&amp;lt;Colleague&amp;gt; colleagues&lt;/p&gt;&lt;hr size=&quot;1&quot; style=&quot;border-style:solid;&quot;&gt;&lt;p style=&quot;margin: 0px 0px 0px 4px;&quot;&gt;+ sendMessage (String message, Colleague colleague)&lt;/p&gt;&lt;p style=&quot;margin: 0px 0px 0px 4px;&quot;&gt;+ addColleague (&lt;span style=&quot;background-color: initial;&quot;&gt;Colleague colleague)&lt;/span&gt;&lt;/p&gt;" style="verticalAlign=top;align=left;overflow=fill;html=1;whiteSpace=wrap;" vertex="1" parent="1">
          <mxGeometry x="400" y="160" width="320" height="90" as="geometry" />
        </mxCell>
        <mxCell id="_sbJuIPB83N5UaiC-M2L-5" style="edgeStyle=none;rounded=0;orthogonalLoop=1;jettySize=auto;html=1;exitX=0.5;exitY=0;exitDx=0;exitDy=0;entryX=0.523;entryY=0.963;entryDx=0;entryDy=0;entryPerimeter=0;dashed=1;endArrow=block;endFill=0;" edge="1" parent="1" source="_sbJuIPB83N5UaiC-M2L-3" target="_sbJuIPB83N5UaiC-M2L-2">
          <mxGeometry relative="1" as="geometry" />
        </mxCell>
        <mxCell id="_sbJuIPB83N5UaiC-M2L-6" value="&lt;p style=&quot;margin:0px;margin-top:4px;text-align:center;&quot;&gt;&lt;b&gt;Colleague&lt;/b&gt;&lt;/p&gt;&lt;hr size=&quot;1&quot; style=&quot;border-style:solid;&quot;&gt;&lt;p style=&quot;margin:0px;margin-left:4px;&quot;&gt;# Mediator mediator&lt;/p&gt;&lt;hr size=&quot;1&quot; style=&quot;border-style:solid;&quot;&gt;&lt;p style=&quot;margin:0px;margin-left:4px;&quot;&gt;+ receiveMessage (String message)&lt;/p&gt;" style="verticalAlign=top;align=left;overflow=fill;html=1;whiteSpace=wrap;" vertex="1" parent="1">
          <mxGeometry x="80" y="180" width="160" height="90" as="geometry" />
        </mxCell>
        <mxCell id="_sbJuIPB83N5UaiC-M2L-7" style="edgeStyle=none;rounded=0;orthogonalLoop=1;jettySize=auto;html=1;exitX=1;exitY=0.75;exitDx=0;exitDy=0;entryX=0.006;entryY=0.189;entryDx=0;entryDy=0;entryPerimeter=0;" edge="1" parent="1" source="_sbJuIPB83N5UaiC-M2L-1" target="_sbJuIPB83N5UaiC-M2L-3">
          <mxGeometry relative="1" as="geometry" />
        </mxCell>
        <mxCell id="_sbJuIPB83N5UaiC-M2L-11" style="edgeStyle=none;rounded=0;orthogonalLoop=1;jettySize=auto;html=1;exitX=0.25;exitY=0;exitDx=0;exitDy=0;entryX=0.25;entryY=1;entryDx=0;entryDy=0;endArrow=block;endFill=0;" edge="1" parent="1" source="_sbJuIPB83N5UaiC-M2L-9" target="_sbJuIPB83N5UaiC-M2L-6">
          <mxGeometry relative="1" as="geometry" />
        </mxCell>
        <mxCell id="_sbJuIPB83N5UaiC-M2L-9" value="&lt;p style=&quot;margin:0px;margin-top:4px;text-align:center;&quot;&gt;&lt;b&gt;ConcreteColleagueA&lt;/b&gt;&lt;/p&gt;&lt;hr size=&quot;1&quot; style=&quot;border-style:solid;&quot;&gt;&lt;p style=&quot;margin:0px;margin-left:4px;&quot;&gt;+ send (String message)&lt;/p&gt;&lt;p style=&quot;margin:0px;margin-left:4px;&quot;&gt;+ receiveMessage (String message)&lt;/p&gt;" style="verticalAlign=top;align=left;overflow=fill;html=1;whiteSpace=wrap;" vertex="1" parent="1">
          <mxGeometry x="80" y="320" width="160" height="80" as="geometry" />
        </mxCell>
        <mxCell id="_sbJuIPB83N5UaiC-M2L-10" value="&lt;p style=&quot;margin:0px;margin-top:4px;text-align:center;&quot;&gt;&lt;b&gt;ConcreteColleagueB&lt;/b&gt;&lt;/p&gt;&lt;hr size=&quot;1&quot; style=&quot;border-style:solid;&quot;&gt;&lt;p style=&quot;margin:0px;margin-left:4px;&quot;&gt;+ send (String message)&lt;/p&gt;&lt;p style=&quot;margin:0px;margin-left:4px;&quot;&gt;+ receiveMessage (String message)&lt;/p&gt;" style="verticalAlign=top;align=left;overflow=fill;html=1;whiteSpace=wrap;" vertex="1" parent="1">
          <mxGeometry x="320" y="320" width="160" height="80" as="geometry" />
        </mxCell>
        <mxCell id="_sbJuIPB83N5UaiC-M2L-12" style="edgeStyle=none;rounded=0;orthogonalLoop=1;jettySize=auto;html=1;exitX=0.5;exitY=0;exitDx=0;exitDy=0;entryX=0.813;entryY=1;entryDx=0;entryDy=0;entryPerimeter=0;endArrow=block;endFill=0;" edge="1" parent="1" source="_sbJuIPB83N5UaiC-M2L-10" target="_sbJuIPB83N5UaiC-M2L-6">
          <mxGeometry relative="1" as="geometry" />
        </mxCell>
        <mxCell id="_sbJuIPB83N5UaiC-M2L-19" style="edgeStyle=orthogonalEdgeStyle;rounded=0;orthogonalLoop=1;jettySize=auto;html=1;exitX=1;exitY=0.5;exitDx=0;exitDy=0;entryX=0.125;entryY=-0.05;entryDx=0;entryDy=0;entryPerimeter=0;" edge="1" parent="1" source="_sbJuIPB83N5UaiC-M2L-1" target="_sbJuIPB83N5UaiC-M2L-10">
          <mxGeometry relative="1" as="geometry" />
        </mxCell>
      </root>
    </mxGraphModel>
  </diagram>
</mxfile>
